<mxfile host="app.diagrams.net" modified="2023-12-27T18:05:05.439Z" agent="Mozilla/5.0 (Windows NT 10.0; Win64; x64; rv:121.0) Gecko/20100101 Firefox/121.0" etag="shMkT8ai1jY1-mJWaajE" version="22.1.13" type="device">
  <diagram name="PÃ¡gina-1" id="ydp3jilGwzJk7KTG9jQZ">
    <mxGraphModel dx="1194" dy="716" grid="1" gridSize="10" guides="1" tooltips="1" connect="1" arrows="1" fold="1" page="1" pageScale="1" pageWidth="827" pageHeight="1169" math="0" shadow="0">
      <root>
        <mxCell id="0" />
        <mxCell id="1" parent="0" />
        <mxCell id="0JJzug-hBgMWZVbLdkC1-2" value="" style="rounded=0;whiteSpace=wrap;html=1;strokeWidth=4;" vertex="1" parent="1">
          <mxGeometry x="50" y="40" width="1060" height="720" as="geometry" />
        </mxCell>
        <mxCell id="0JJzug-hBgMWZVbLdkC1-1" value="" style="rounded=0;whiteSpace=wrap;html=1;strokeWidth=4;" vertex="1" parent="1">
          <mxGeometry x="310" y="60" width="120" height="670" as="geometry" />
        </mxCell>
        <mxCell id="0JJzug-hBgMWZVbLdkC1-3" value="" style="rounded=0;whiteSpace=wrap;html=1;strokeWidth=4;fillColor=#bac8d3;strokeColor=#23445d;" vertex="1" parent="1">
          <mxGeometry x="70" y="220" width="210" height="320" as="geometry" />
        </mxCell>
        <mxCell id="0JJzug-hBgMWZVbLdkC1-5" value="" style="triangle;whiteSpace=wrap;html=1;strokeWidth=3;fillStyle=hatch;fillColor=#f8cecc;strokeColor=#b85450;" vertex="1" parent="1">
          <mxGeometry x="340" y="310" width="60" height="80" as="geometry" />
        </mxCell>
        <mxCell id="0JJzug-hBgMWZVbLdkC1-6" value="" style="rounded=0;whiteSpace=wrap;html=1;strokeWidth=4;" vertex="1" parent="1">
          <mxGeometry x="450" y="60" width="620" height="670" as="geometry" />
        </mxCell>
        <mxCell id="0JJzug-hBgMWZVbLdkC1-7" value="QUE CLASSIFICATION" style="text;html=1;strokeColor=none;fillColor=none;align=center;verticalAlign=middle;whiteSpace=wrap;rounded=0;fontSize=16;fontStyle=1" vertex="1" parent="1">
          <mxGeometry x="85" y="240" width="180" height="30" as="geometry" />
        </mxCell>
        <mxCell id="0JJzug-hBgMWZVbLdkC1-8" value="&lt;div align=&quot;left&quot;&gt;. SOURCE ADDRESS&lt;/div&gt;&lt;div align=&quot;left&quot;&gt;. DST. ADDRESS&lt;/div&gt;&lt;div align=&quot;left&quot;&gt;. SOURCE PORT&lt;/div&gt;&lt;div align=&quot;left&quot;&gt;. DST. PORT&lt;/div&gt;&lt;div align=&quot;left&quot;&gt;. IP PORT&lt;br&gt;&lt;/div&gt;" style="text;html=1;strokeColor=none;fillColor=none;align=center;verticalAlign=middle;whiteSpace=wrap;rounded=0;fontSize=16;fontStyle=1" vertex="1" parent="1">
          <mxGeometry x="85" y="280" width="180" height="110" as="geometry" />
        </mxCell>
        <mxCell id="0JJzug-hBgMWZVbLdkC1-9" value="WEIGTH" style="text;html=1;strokeColor=none;fillColor=none;align=center;verticalAlign=middle;whiteSpace=wrap;rounded=0;fontSize=16;fontStyle=1" vertex="1" parent="1">
          <mxGeometry x="100" y="430" width="65" height="40" as="geometry" />
        </mxCell>
        <mxCell id="0JJzug-hBgMWZVbLdkC1-10" value="&lt;div align=&quot;left&quot;&gt;. IP PRECEDENCE&lt;/div&gt;&lt;div align=&quot;left&quot;&gt;. RSVP / RTP RESERVE&lt;br&gt;&lt;/div&gt;" style="text;html=1;strokeColor=none;fillColor=none;align=center;verticalAlign=middle;whiteSpace=wrap;rounded=0;fontSize=16;fontStyle=1" vertex="1" parent="1">
          <mxGeometry x="85" y="460" width="185" height="50" as="geometry" />
        </mxCell>
        <mxCell id="0JJzug-hBgMWZVbLdkC1-11" value="" style="endArrow=classic;html=1;rounded=0;strokeWidth=4;strokeColor=#CC6600;exitX=1;exitY=1;exitDx=0;exitDy=0;entryX=0;entryY=0.25;entryDx=0;entryDy=0;" edge="1" parent="1" source="0JJzug-hBgMWZVbLdkC1-7" target="0JJzug-hBgMWZVbLdkC1-5">
          <mxGeometry width="50" height="50" relative="1" as="geometry">
            <mxPoint x="320" y="170" as="sourcePoint" />
            <mxPoint x="410" y="290" as="targetPoint" />
          </mxGeometry>
        </mxCell>
        <mxCell id="0JJzug-hBgMWZVbLdkC1-12" value="" style="endArrow=classic;html=1;rounded=0;strokeWidth=4;strokeColor=#CC6600;exitX=1;exitY=0.25;exitDx=0;exitDy=0;" edge="1" parent="1" source="0JJzug-hBgMWZVbLdkC1-9">
          <mxGeometry width="50" height="50" relative="1" as="geometry">
            <mxPoint x="200" y="425.06" as="sourcePoint" />
            <mxPoint x="332.5" y="369.99506493506493" as="targetPoint" />
          </mxGeometry>
        </mxCell>
        <mxCell id="0JJzug-hBgMWZVbLdkC1-13" value="&lt;b&gt;&lt;font style=&quot;font-size: 16px;&quot;&gt;DE-QUEUE&lt;/font&gt;&lt;/b&gt;" style="ellipse;whiteSpace=wrap;html=1;fillColor=#fad7ac;strokeColor=#b46504;strokeWidth=4;" vertex="1" parent="1">
          <mxGeometry x="930" y="347.5" width="120" height="80" as="geometry" />
        </mxCell>
        <mxCell id="0JJzug-hBgMWZVbLdkC1-14" value="" style="rounded=0;whiteSpace=wrap;html=1;strokeWidth=4;fillColor=#d0cee2;strokeColor=#56517e;" vertex="1" parent="1">
          <mxGeometry x="480" y="80" width="200" height="60" as="geometry" />
        </mxCell>
        <mxCell id="0JJzug-hBgMWZVbLdkC1-15" value="" style="rounded=0;whiteSpace=wrap;html=1;strokeWidth=4;fillColor=#d0cee2;strokeColor=#56517e;" vertex="1" parent="1">
          <mxGeometry x="480" y="190" width="200" height="60" as="geometry" />
        </mxCell>
        <mxCell id="0JJzug-hBgMWZVbLdkC1-16" value="" style="rounded=0;whiteSpace=wrap;html=1;strokeWidth=4;fillColor=#b0e3e6;strokeColor=#0e8088;" vertex="1" parent="1">
          <mxGeometry x="480" y="300" width="200" height="60" as="geometry" />
        </mxCell>
        <mxCell id="0JJzug-hBgMWZVbLdkC1-17" value="" style="rounded=0;whiteSpace=wrap;html=1;strokeWidth=4;fillColor=#b0e3e6;strokeColor=#0e8088;" vertex="1" parent="1">
          <mxGeometry x="480" y="410" width="200" height="60" as="geometry" />
        </mxCell>
        <mxCell id="0JJzug-hBgMWZVbLdkC1-18" value="" style="rounded=0;whiteSpace=wrap;html=1;strokeWidth=4;fillColor=#ffcccc;strokeColor=#36393d;" vertex="1" parent="1">
          <mxGeometry x="480" y="524.5" width="200" height="60" as="geometry" />
        </mxCell>
        <mxCell id="0JJzug-hBgMWZVbLdkC1-19" value="" style="rounded=0;whiteSpace=wrap;html=1;strokeWidth=4;fillColor=#ffcccc;strokeColor=#36393d;" vertex="1" parent="1">
          <mxGeometry x="480" y="640" width="200" height="60" as="geometry" />
        </mxCell>
        <mxCell id="0JJzug-hBgMWZVbLdkC1-20" value="&lt;font style=&quot;font-size: 16px;&quot;&gt;&lt;b&gt;1&lt;/b&gt;&lt;/font&gt;" style="rounded=0;whiteSpace=wrap;html=1;strokeWidth=4;" vertex="1" parent="1">
          <mxGeometry x="560" y="95" width="30" height="30" as="geometry" />
        </mxCell>
        <mxCell id="0JJzug-hBgMWZVbLdkC1-21" value="&lt;font style=&quot;font-size: 16px;&quot;&gt;&lt;b&gt;1&lt;/b&gt;&lt;/font&gt;" style="rounded=0;whiteSpace=wrap;html=1;strokeWidth=4;" vertex="1" parent="1">
          <mxGeometry x="620" y="95" width="30" height="30" as="geometry" />
        </mxCell>
        <mxCell id="0JJzug-hBgMWZVbLdkC1-23" value="&lt;b&gt;&lt;font size=&quot;1&quot;&gt;&lt;span style=&quot;font-size: 16px;&quot;&gt;2&lt;/span&gt;&lt;/font&gt;&lt;/b&gt;" style="rounded=0;whiteSpace=wrap;html=1;strokeWidth=4;" vertex="1" parent="1">
          <mxGeometry x="565" y="205" width="30" height="30" as="geometry" />
        </mxCell>
        <mxCell id="0JJzug-hBgMWZVbLdkC1-24" value="&lt;font size=&quot;1&quot;&gt;&lt;b style=&quot;font-size: 16px;&quot;&gt;2&lt;/b&gt;&lt;/font&gt;" style="rounded=0;whiteSpace=wrap;html=1;strokeWidth=4;" vertex="1" parent="1">
          <mxGeometry x="620" y="205" width="30" height="30" as="geometry" />
        </mxCell>
        <mxCell id="0JJzug-hBgMWZVbLdkC1-25" value="&lt;font size=&quot;1&quot;&gt;&lt;b style=&quot;font-size: 16px;&quot;&gt;3&lt;/b&gt;&lt;/font&gt;" style="rounded=0;whiteSpace=wrap;html=1;strokeWidth=4;" vertex="1" parent="1">
          <mxGeometry x="620" y="315" width="30" height="30" as="geometry" />
        </mxCell>
        <mxCell id="0JJzug-hBgMWZVbLdkC1-26" value="&lt;font size=&quot;1&quot;&gt;&lt;b style=&quot;font-size: 16px;&quot;&gt;4&lt;/b&gt;&lt;/font&gt;" style="rounded=0;whiteSpace=wrap;html=1;strokeWidth=4;" vertex="1" parent="1">
          <mxGeometry x="620" y="425" width="30" height="30" as="geometry" />
        </mxCell>
        <mxCell id="0JJzug-hBgMWZVbLdkC1-27" value="&lt;font size=&quot;1&quot;&gt;&lt;b style=&quot;font-size: 16px;&quot;&gt;4&lt;/b&gt;&lt;/font&gt;" style="rounded=0;whiteSpace=wrap;html=1;strokeWidth=4;" vertex="1" parent="1">
          <mxGeometry x="565" y="425" width="30" height="30" as="geometry" />
        </mxCell>
        <mxCell id="0JJzug-hBgMWZVbLdkC1-28" value="&lt;font size=&quot;1&quot;&gt;&lt;b style=&quot;font-size: 16px;&quot;&gt;5&lt;/b&gt;&lt;/font&gt;" style="rounded=0;whiteSpace=wrap;html=1;strokeWidth=4;" vertex="1" parent="1">
          <mxGeometry x="620" y="540" width="30" height="30" as="geometry" />
        </mxCell>
        <mxCell id="0JJzug-hBgMWZVbLdkC1-29" value="&lt;font size=&quot;1&quot;&gt;&lt;b style=&quot;font-size: 16px;&quot;&gt;5&lt;/b&gt;&lt;/font&gt;" style="rounded=0;whiteSpace=wrap;html=1;strokeWidth=4;" vertex="1" parent="1">
          <mxGeometry x="565" y="540" width="30" height="30" as="geometry" />
        </mxCell>
        <mxCell id="0JJzug-hBgMWZVbLdkC1-31" value="&lt;font size=&quot;1&quot;&gt;&lt;b style=&quot;font-size: 16px;&quot;&gt;6&lt;/b&gt;&lt;/font&gt;" style="rounded=0;whiteSpace=wrap;html=1;strokeWidth=4;" vertex="1" parent="1">
          <mxGeometry x="620" y="655" width="30" height="30" as="geometry" />
        </mxCell>
        <mxCell id="0JJzug-hBgMWZVbLdkC1-32" value="&lt;font size=&quot;1&quot;&gt;&lt;b style=&quot;font-size: 16px;&quot;&gt;6&lt;/b&gt;&lt;/font&gt;" style="rounded=0;whiteSpace=wrap;html=1;strokeWidth=4;" vertex="1" parent="1">
          <mxGeometry x="565" y="655" width="30" height="30" as="geometry" />
        </mxCell>
        <mxCell id="0JJzug-hBgMWZVbLdkC1-33" value="&lt;font size=&quot;1&quot;&gt;&lt;b style=&quot;font-size: 16px;&quot;&gt;6&lt;/b&gt;&lt;/font&gt;" style="rounded=0;whiteSpace=wrap;html=1;strokeWidth=4;" vertex="1" parent="1">
          <mxGeometry x="510" y="655" width="30" height="30" as="geometry" />
        </mxCell>
        <mxCell id="0JJzug-hBgMWZVbLdkC1-34" value="&lt;font style=&quot;font-size: 21px;&quot;&gt;&lt;b&gt;...&lt;/b&gt;&lt;/font&gt;" style="text;html=1;strokeColor=none;fillColor=none;align=center;verticalAlign=middle;whiteSpace=wrap;rounded=0;rotation=-90;" vertex="1" parent="1">
          <mxGeometry x="620" y="370" width="30" height="35" as="geometry" />
        </mxCell>
        <mxCell id="0JJzug-hBgMWZVbLdkC1-35" value="&lt;font style=&quot;font-size: 21px;&quot;&gt;&lt;b&gt;...&lt;/b&gt;&lt;/font&gt;" style="text;html=1;strokeColor=none;fillColor=none;align=center;verticalAlign=middle;whiteSpace=wrap;rounded=0;rotation=-90;" vertex="1" parent="1">
          <mxGeometry x="620" y="150" width="30" height="35" as="geometry" />
        </mxCell>
        <mxCell id="0JJzug-hBgMWZVbLdkC1-36" value="&lt;font style=&quot;font-size: 21px;&quot;&gt;&lt;b&gt;...&lt;/b&gt;&lt;/font&gt;" style="text;html=1;strokeColor=none;fillColor=none;align=center;verticalAlign=middle;whiteSpace=wrap;rounded=0;rotation=-90;" vertex="1" parent="1">
          <mxGeometry x="560" y="150" width="30" height="35" as="geometry" />
        </mxCell>
        <mxCell id="0JJzug-hBgMWZVbLdkC1-37" value="&lt;font style=&quot;font-size: 21px;&quot;&gt;&lt;b&gt;...&lt;/b&gt;&lt;/font&gt;" style="text;html=1;strokeColor=none;fillColor=none;align=center;verticalAlign=middle;whiteSpace=wrap;rounded=0;rotation=-90;" vertex="1" parent="1">
          <mxGeometry x="550" y="370" width="30" height="35" as="geometry" />
        </mxCell>
        <mxCell id="0JJzug-hBgMWZVbLdkC1-38" value="&lt;font style=&quot;font-size: 21px;&quot;&gt;&lt;b&gt;...&lt;/b&gt;&lt;/font&gt;" style="text;html=1;strokeColor=none;fillColor=none;align=center;verticalAlign=middle;whiteSpace=wrap;rounded=0;rotation=-90;" vertex="1" parent="1">
          <mxGeometry x="620" y="590" width="30" height="35" as="geometry" />
        </mxCell>
        <mxCell id="0JJzug-hBgMWZVbLdkC1-39" value="&lt;font style=&quot;font-size: 21px;&quot;&gt;&lt;b&gt;...&lt;/b&gt;&lt;/font&gt;" style="text;html=1;strokeColor=none;fillColor=none;align=center;verticalAlign=middle;whiteSpace=wrap;rounded=0;rotation=-90;" vertex="1" parent="1">
          <mxGeometry x="560" y="590" width="30" height="35" as="geometry" />
        </mxCell>
        <mxCell id="0JJzug-hBgMWZVbLdkC1-40" value="" style="shape=curlyBracket;whiteSpace=wrap;html=1;rounded=1;labelPosition=left;verticalLabelPosition=middle;align=right;verticalAlign=middle;strokeWidth=4;fillColor=#ffcc99;strokeColor=#0000CC;rotation=-180;" vertex="1" parent="1">
          <mxGeometry x="700" y="80" width="20" height="170" as="geometry" />
        </mxCell>
        <mxCell id="0JJzug-hBgMWZVbLdkC1-41" value="" style="shape=curlyBracket;whiteSpace=wrap;html=1;rounded=1;labelPosition=left;verticalLabelPosition=middle;align=right;verticalAlign=middle;strokeWidth=4;fillColor=#ffcc99;strokeColor=#0000CC;rotation=-180;" vertex="1" parent="1">
          <mxGeometry x="700" y="302.5" width="20" height="170" as="geometry" />
        </mxCell>
        <mxCell id="0JJzug-hBgMWZVbLdkC1-42" value="" style="shape=curlyBracket;whiteSpace=wrap;html=1;rounded=1;labelPosition=left;verticalLabelPosition=middle;align=right;verticalAlign=middle;strokeWidth=4;fillColor=#ffcc99;strokeColor=#0000CC;rotation=-180;" vertex="1" parent="1">
          <mxGeometry x="700" y="530" width="20" height="170" as="geometry" />
        </mxCell>
        <mxCell id="0JJzug-hBgMWZVbLdkC1-43" value="" style="endArrow=classic;html=1;rounded=0;strokeWidth=4;strokeColor=#CC6600;" edge="1" parent="1">
          <mxGeometry width="50" height="50" relative="1" as="geometry">
            <mxPoint x="360" y="320" as="sourcePoint" />
            <mxPoint x="500" y="150" as="targetPoint" />
          </mxGeometry>
        </mxCell>
        <mxCell id="0JJzug-hBgMWZVbLdkC1-44" value="" style="endArrow=classic;html=1;rounded=0;strokeWidth=4;strokeColor=#CC6600;exitX=1;exitY=1;exitDx=0;exitDy=0;" edge="1" parent="1">
          <mxGeometry width="50" height="50" relative="1" as="geometry">
            <mxPoint x="410" y="350" as="sourcePoint" />
            <mxPoint x="500" y="380" as="targetPoint" />
          </mxGeometry>
        </mxCell>
        <mxCell id="0JJzug-hBgMWZVbLdkC1-45" value="" style="endArrow=classic;html=1;rounded=0;strokeWidth=4;strokeColor=#CC6600;" edge="1" parent="1">
          <mxGeometry width="50" height="50" relative="1" as="geometry">
            <mxPoint x="379" y="368" as="sourcePoint" />
            <mxPoint x="489" y="638" as="targetPoint" />
          </mxGeometry>
        </mxCell>
        <mxCell id="0JJzug-hBgMWZVbLdkC1-47" value="&lt;font style=&quot;font-size: 16px;&quot;&gt;&lt;b&gt;RESERVED QUEUES (RSVP AND RTP RESERVE)&lt;br&gt;&lt;/b&gt;&lt;/font&gt;" style="text;html=1;strokeColor=none;fillColor=none;align=center;verticalAlign=middle;whiteSpace=wrap;rounded=0;" vertex="1" parent="1">
          <mxGeometry x="720" y="155" width="160" height="30" as="geometry" />
        </mxCell>
        <mxCell id="0JJzug-hBgMWZVbLdkC1-48" value="&lt;span style=&quot;font-size: 16px;&quot;&gt;IP PRECEDENCE&lt;br style=&quot;font-size: 16px;&quot;&gt;&lt;/span&gt;" style="text;html=1;strokeColor=none;fillColor=none;align=center;verticalAlign=middle;whiteSpace=wrap;rounded=0;fontSize=16;fontStyle=1" vertex="1" parent="1">
          <mxGeometry x="730" y="372.5" width="140" height="30" as="geometry" />
        </mxCell>
        <mxCell id="0JJzug-hBgMWZVbLdkC1-49" value="&lt;span style=&quot;font-size: 16px;&quot;&gt;IP PRECEDENCE 0 (BEST EFFORT / HASH QUEUS)&lt;br style=&quot;font-size: 16px;&quot;&gt;&lt;/span&gt;" style="text;html=1;strokeColor=none;fillColor=none;align=center;verticalAlign=middle;whiteSpace=wrap;rounded=0;fontSize=16;fontStyle=1" vertex="1" parent="1">
          <mxGeometry x="730" y="600" width="200" height="30" as="geometry" />
        </mxCell>
        <mxCell id="0JJzug-hBgMWZVbLdkC1-51" value="" style="endArrow=classic;html=1;rounded=0;strokeWidth=4;strokeColor=#CC6600;" edge="1" parent="1">
          <mxGeometry width="50" height="50" relative="1" as="geometry">
            <mxPoint x="870" y="390" as="sourcePoint" />
            <mxPoint x="930" y="390" as="targetPoint" />
          </mxGeometry>
        </mxCell>
        <mxCell id="0JJzug-hBgMWZVbLdkC1-52" value="" style="endArrow=classic;html=1;rounded=0;strokeWidth=4;strokeColor=#CC6600;" edge="1" parent="1">
          <mxGeometry width="50" height="50" relative="1" as="geometry">
            <mxPoint x="880" y="208" as="sourcePoint" />
            <mxPoint x="940" y="343" as="targetPoint" />
          </mxGeometry>
        </mxCell>
        <mxCell id="0JJzug-hBgMWZVbLdkC1-53" value="" style="endArrow=classic;html=1;rounded=0;strokeWidth=4;strokeColor=#CC6600;" edge="1" parent="1">
          <mxGeometry width="50" height="50" relative="1" as="geometry">
            <mxPoint x="840" y="595" as="sourcePoint" />
            <mxPoint x="951" y="430" as="targetPoint" />
          </mxGeometry>
        </mxCell>
      </root>
    </mxGraphModel>
  </diagram>
</mxfile>
